$MeshFormat
2.2 0 8
$EndMeshFormat
$Nodes
142
1 0 0 0
2 2 0 0
3 2 2 0
4 0 2 0
5 0.1999999999996293 2 0
6 0.3999999999991157 2 0
7 0.5999999999985328 2 0
8 0.7999999999979498 2 0
9 0.9999999999973885 2 0
10 1.199999999997894 2 0
11 1.39999999999842 2 0
12 1.599999999998947 2 0
13 1.799999999999474 2 0
14 2 1.799999999999167 0
15 2 1.6 0
16 2 1.400000000001387 0
17 2 1.200000000002774 0
18 2 1.000000000004117 0
19 2 0.8000000000033287 0
20 2 0.6000000000024965 0
21 2 0.4000000000016644 0
22 2 0.200000000000832 0
23 1.799999999999167 0 0
24 1.6 0 0
25 1.400000000001387 0 0
26 1.200000000002774 0 0
27 1.000000000004117 0 0
28 0.8000000000033287 0 0
29 0.6000000000024965 0 0
30 0.4000000000016644 0 0
31 0.200000000000832 0 0
32 0 0.1999999999996293 0
33 0 0.3999999999991157 0
34 0 0.5999999999985328 0
35 0 0.7999999999979498 0
36 0 0.9999999999973885 0
37 0 1.199999999997894 0
38 0 1.39999999999842 0
39 0 1.599999999998947 0
40 0 1.799999999999474 0
41 1.826794919243353 0.900000000003723 0
42 0.9211485614762488 0.1847358548213033 0
43 0.1732050807568634 1.099999999997641 0
44 1.093680581254996 1.830443437355525 0
45 1.826794919243903 1.300000000001601 0
46 1.301840399804413 0.1777086041451742 0
47 0.6999999999982413 1.826794919243617 0
48 0.1638149760994945 0.6950607270485106 0
49 1.517345130941464 1.820740775008675 0
50 1.827738658026076 0.501634603525374 0
51 0.1591845137935783 1.491957606462953 0
52 0.5000000000020804 0.1732050807576084 0
53 1.681634876187731 0.1811394494894969 0
54 1.830645590989637 1.699152526143506 0
55 0.1693544090108651 0.3008474738555783 0
56 0.3011864633980461 1.834100519170488 0
57 1.826952209040272 0.7002724339239317 0
58 1.653616053453022 0.8000454056573845 0
59 1.65359420764838 1.000007567611937 0
60 1.480389855085707 0.9000088288808397 0
61 1.480386335484107 1.100002732750298 0
62 1.307180789493272 1.000001926940873 0
63 1.307924820132063 0.7993320645370436 0
64 1.134826473427897 0.8985780524300436 0
65 1.134116761173964 1.099763329897032 0
66 0.9609351891572209 0.9997235637237951 0
67 0.960820821904986 1.199914482271878 0
68 0.9616666085430482 0.7984059898766682 0
69 0.787741562502797 0.8996882589364823 0
70 0.7888522462785416 0.7016028290227503 0
71 1.134006841452489 1.299946302029368 0
72 0.9673218548317948 1.408908437132347 0
73 0.7886650423424506 1.301470486569255 0
74 0.9615639564841163 0.597883424624062 0
75 0.6146035105120862 0.8002151813300241 0
76 0.6143593539507031 0.6000000000058661 0
77 0.6144295680106007 0.9999839067137788 0
78 0.4411542731947806 0.9000000000049931 0
79 1.140260647279212 1.503224959593465 0
80 1.308232726358097 1.400528543604728 0
81 0.7974509341787854 1.507071621879499 0
82 0.6143593539513155 1.400000000002474 0
83 1.307179676976545 1.600000000000777 0
84 1.477210901057219 1.494286820411957 0
85 0.4411542731950996 1.100000000004281 0
86 0.6095072196309419 1.621962108517266 0
87 0.4431255172155718 1.497547473425308 0
88 1.653777712410295 0.600325407187049 0
89 1.659396352337189 0.3988178468917712 0
90 1.482115766704409 0.4998572090177083 0
91 1.486320296493853 0.2989878221174924 0
92 1.306972722429463 0.3934859835968777 0
93 1.119378313456665 0.295012941679048 0
94 1.129517045151103 0.4922792950832425 0
95 0.9477670424836014 0.4012251009105134 0
96 0.7607772950726936 0.3259163639487005 0
97 1.134511707798217 0.6977464710931689 0
98 1.653590829639958 1.200001716728063 0
99 1.305796777858586 1.798836791198516 0
100 0.1732050807572802 1.299999999998267 0
101 0.8989467635407042 1.831548194028355 0
102 0.9799634669462649 1.633591223747664 0
103 0.1678691311860476 0.8996999955675653 0
104 1.826795812629265 1.100001547392035 0
105 0.1681465941214595 0.494378760532171 0
106 0.3588078982851347 0.3712686200257843 0
107 0.501782280504 1.82649396348991 0
108 1.30738470194896 1.200040472537304 0
109 1.827436697868349 1.499858754357815 0
110 0.4576654740485121 0.6984013909914287 0
111 0.7878252563115767 1.100130116369756 0
112 1.480065888829384 1.29914338100547 0
113 1.653114845854568 1.398881778750806 0
114 0.6145979611676812 1.200264084943811 0
115 1.636604873410819 1.630081483640304 0
116 0.4411542731950445 1.300000000003323 0
117 1.481565925139428 0.6999281525479965 0
118 1.30710133122578 0.5971048626460063 0
119 1.835744924964863 0.3061357562083408 0
120 1.701743707511991 1.833507412850811 0
121 0.2997750904217314 0.1659325823195119 0
122 0.588168472431588 0.3781151340936976 0
123 0.187708687954187 1.68818677972091 0
124 0.7769147277835404 0.5007904754342649 0
125 0.698702551412523 0.1594560782706261 0
126 0.3999999999991222 1.676106234008093 0
127 0.7985579983963955 1.681385787655127 0
128 0.3267998604584085 0.5796522307036136 0
129 1.493959114497477 0.1315671751504327 0
130 0.3071796769742752 1.399999999998432 0
131 0.3071796769735035 1.199999999997675 0
132 0.3071796769731974 0.9999999999978009 0
133 0.3107472319934067 0.795469057385652 0
134 1.460288568300284 1.665192378864312 0
135 1.100000000003446 0.1305125270633428 0
136 1.165376230063121 1.67321928237919 0
137 0.4719781209104289 0.5227745224530975 0
138 1.853589838486278 1.853589838486196 0
139 1.853589838486248 0.146410161513752 0
140 0.1464101615132965 1.853589838486463 0
141 0.1464101615135668 0.1464101615132446 0
142 0.2994396791873469 1.550759618723139 0
$EndNodes
$Elements
282
1 1 2 13 1 4 5
2 1 2 13 1 5 6
3 1 2 13 1 6 7
4 1 2 13 1 7 8
5 1 2 13 1 8 9
6 1 2 13 1 9 10
7 1 2 13 1 10 11
8 1 2 13 1 11 12
9 1 2 13 1 12 13
10 1 2 13 1 13 3
11 1 2 13 2 3 14
12 1 2 13 2 14 15
13 1 2 13 2 15 16
14 1 2 13 2 16 17
15 1 2 13 2 17 18
16 1 2 13 2 18 19
17 1 2 13 2 19 20
18 1 2 13 2 20 21
19 1 2 13 2 21 22
20 1 2 13 2 22 2
21 1 2 12 3 2 23
22 1 2 12 3 23 24
23 1 2 12 3 24 25
24 1 2 12 3 25 26
25 1 2 12 3 26 27
26 1 2 12 3 27 28
27 1 2 12 3 28 29
28 1 2 12 3 29 30
29 1 2 12 3 30 31
30 1 2 12 3 31 1
31 1 2 12 4 1 32
32 1 2 12 4 32 33
33 1 2 12 4 33 34
34 1 2 12 4 34 35
35 1 2 12 4 35 36
36 1 2 12 4 36 37
37 1 2 12 4 37 38
38 1 2 12 4 38 39
39 1 2 12 4 39 40
40 1 2 12 4 40 4
41 2 2 14 11 72 81 102
42 2 2 14 11 122 76 124
43 2 2 14 11 115 49 120
44 2 2 14 11 106 52 121
45 2 2 14 11 52 106 122
46 2 2 14 11 49 115 134
47 2 2 14 11 96 122 124
48 2 2 14 11 47 86 107
49 2 2 14 11 52 122 125
50 2 2 14 11 93 42 95
51 2 2 14 11 89 53 91
52 2 2 14 11 122 96 125
53 2 2 14 11 102 81 127
54 2 2 14 11 107 86 126
55 2 2 14 11 79 72 102
56 2 2 14 11 42 93 135
57 2 2 14 11 91 53 129
58 2 2 14 11 91 46 92
59 2 2 14 11 92 46 93
60 2 2 14 11 86 47 127
61 2 2 14 11 95 42 96
62 2 2 14 11 54 115 120
63 2 2 14 11 55 106 121
64 2 2 14 11 83 99 134
65 2 2 14 11 53 89 119
66 2 2 14 11 123 56 126
67 2 2 14 11 86 87 126
68 2 2 14 11 128 48 133
69 2 2 14 11 68 64 97
70 2 2 14 11 92 94 118
71 2 2 14 11 99 83 136
72 2 2 14 11 74 94 95
73 2 2 14 11 99 49 134
74 2 2 14 11 94 97 118
75 2 2 14 11 64 63 97
76 2 2 14 11 74 68 97
77 2 2 14 11 92 93 94
78 2 2 14 11 123 126 142
79 2 2 14 11 46 91 129
80 2 2 14 11 74 95 124
81 2 2 14 11 110 128 133
82 2 2 14 11 76 122 137
83 2 2 14 11 94 93 95
84 2 2 14 11 94 74 97
85 2 2 14 11 41 57 58
86 2 2 14 11 41 19 57
87 2 2 14 11 18 19 41
88 2 2 14 11 88 50 89
89 2 2 14 11 27 28 42
90 2 2 14 11 98 45 104
91 2 2 14 11 44 10 99
92 2 2 14 11 45 17 104
93 2 2 14 11 57 50 88
94 2 2 14 11 88 89 90
95 2 2 14 11 43 37 100
96 2 2 14 11 18 41 104
97 2 2 14 11 20 50 57
98 2 2 14 11 9 10 44
99 2 2 14 11 36 37 43
100 2 2 14 11 41 58 59
101 2 2 14 11 19 20 57
102 2 2 14 11 17 18 104
103 2 2 14 11 9 44 101
104 2 2 14 11 48 35 103
105 2 2 14 11 36 43 103
106 2 2 14 11 47 8 101
107 2 2 14 11 90 89 91
108 2 2 14 11 11 49 99
109 2 2 14 11 41 59 104
110 2 2 14 11 45 98 113
111 2 2 14 11 35 36 103
112 2 2 14 11 38 51 100
113 2 2 14 11 8 9 101
114 2 2 14 11 90 91 92
115 2 2 14 11 10 11 99
116 2 2 14 11 59 98 104
117 2 2 14 11 37 38 100
118 2 2 14 11 20 21 50
119 2 2 14 11 109 113 115
120 2 2 14 11 11 12 49
121 2 2 14 11 29 30 52
122 2 2 14 11 101 44 102
123 2 2 14 11 109 45 113
124 2 2 14 11 38 39 51
125 2 2 14 11 59 58 60
126 2 2 14 11 14 15 54
127 2 2 14 11 34 35 48
128 2 2 14 11 70 68 74
129 2 2 14 11 23 24 53
130 2 2 14 11 7 8 47
131 2 2 14 11 62 60 63
132 2 2 14 11 66 64 68
133 2 2 14 11 58 57 88
134 2 2 14 11 34 48 105
135 2 2 14 11 80 84 112
136 2 2 14 11 25 26 46
137 2 2 14 11 66 68 69
138 2 2 14 11 69 75 77
139 2 2 14 11 7 47 107
140 2 2 14 11 65 67 71
141 2 2 14 11 16 17 45
142 2 2 14 11 80 83 84
143 2 2 14 11 6 7 107
144 2 2 14 11 71 72 79
145 2 2 14 11 71 79 80
146 2 2 14 11 62 63 64
147 2 2 14 11 33 34 105
148 2 2 14 11 71 67 72
149 2 2 14 11 65 64 66
150 2 2 14 11 65 66 67
151 2 2 14 11 77 75 78
152 2 2 14 11 71 80 108
153 2 2 14 11 62 64 65
154 2 2 14 11 77 78 85
155 2 2 14 11 59 61 98
156 2 2 14 11 62 65 108
157 2 2 14 11 65 71 108
158 2 2 14 11 5 6 56
159 2 2 14 11 78 75 110
160 2 2 14 11 98 61 112
161 2 2 14 11 72 73 81
162 2 2 14 11 69 70 75
163 2 2 14 11 81 82 86
164 2 2 14 11 66 69 111
165 2 2 14 11 61 60 62
166 2 2 14 11 32 33 55
167 2 2 14 11 72 67 73
168 2 2 14 11 67 66 111
169 2 2 14 11 59 60 61
170 2 2 14 11 61 62 108
171 2 2 14 11 54 15 109
172 2 2 14 11 69 68 70
173 2 2 14 11 15 16 109
174 2 2 14 11 56 6 107
175 2 2 14 11 69 77 111
176 2 2 14 11 61 108 112
177 2 2 14 11 80 79 83
178 2 2 14 11 81 73 82
179 2 2 14 11 73 67 111
180 2 2 14 11 75 76 110
181 2 2 14 11 55 33 105
182 2 2 14 11 86 82 87
183 2 2 14 11 16 45 109
184 2 2 14 11 75 70 76
185 2 2 14 11 112 84 113
186 2 2 14 11 55 105 106
187 2 2 14 11 108 80 112
188 2 2 14 11 98 112 113
189 2 2 14 11 111 77 114
190 2 2 14 11 88 90 117
191 2 2 14 11 73 111 114
192 2 2 14 11 113 84 115
193 2 2 14 11 77 85 114
194 2 2 14 11 114 85 116
195 2 2 14 11 82 73 114
196 2 2 14 11 82 114 116
197 2 2 14 11 60 58 117
198 2 2 14 11 54 109 115
199 2 2 14 11 63 60 117
200 2 2 14 11 87 82 116
201 2 2 14 11 58 88 117
202 2 2 14 11 95 96 124
203 2 2 14 11 97 63 118
204 2 2 14 11 90 92 118
205 2 2 14 11 63 117 118
206 2 2 14 11 96 42 125
207 2 2 14 11 117 90 118
208 2 2 14 11 89 50 119
209 2 2 14 11 21 22 119
210 2 2 14 11 12 13 120
211 2 2 14 11 30 31 121
212 2 2 14 11 39 40 123
213 2 2 14 11 76 70 124
214 2 2 14 11 42 28 125
215 2 2 14 11 29 52 125
216 2 2 14 11 93 46 135
217 2 2 14 11 101 102 127
218 2 2 14 11 81 86 127
219 2 2 14 11 50 21 119
220 2 2 14 11 49 12 120
221 2 2 14 11 52 30 121
222 2 2 14 11 51 39 123
223 2 2 14 11 105 48 128
224 2 2 14 11 70 74 124
225 2 2 14 11 53 24 129
226 2 2 14 11 25 46 129
227 2 2 14 11 115 84 134
228 2 2 14 11 27 42 135
229 2 2 14 11 46 26 135
230 2 2 14 11 44 99 136
231 2 2 14 11 3 14 138
232 2 2 14 11 2 23 139
233 2 2 14 11 13 3 138
234 2 2 14 11 4 5 140
235 2 2 14 11 40 4 140
236 2 2 14 11 1 32 141
237 2 2 14 11 31 1 141
238 2 2 14 11 22 2 139
239 2 2 14 11 28 29 125
240 2 2 14 11 56 107 126
241 2 2 14 11 122 106 137
242 2 2 14 11 47 101 127
243 2 2 14 11 110 76 137
244 2 2 14 11 79 102 136
245 2 2 14 11 106 105 128
246 2 2 14 11 83 79 136
247 2 2 14 11 130 116 131
248 2 2 14 11 48 103 133
249 2 2 14 11 131 85 132
250 2 2 14 11 85 78 132
251 2 2 14 11 116 85 131
252 2 2 14 11 24 25 129
253 2 2 14 11 87 116 130
254 2 2 14 11 43 100 131
255 2 2 14 11 100 130 131
256 2 2 14 11 100 51 130
257 2 2 14 11 43 131 132
258 2 2 14 11 103 43 132
259 2 2 14 11 78 110 133
260 2 2 14 11 132 78 133
261 2 2 14 11 103 132 133
262 2 2 14 11 84 83 134
263 2 2 14 11 26 27 135
264 2 2 14 11 102 44 136
265 2 2 14 11 51 123 142
266 2 2 14 11 119 22 139
267 2 2 14 11 121 31 141
268 2 2 14 11 120 13 138
269 2 2 14 11 123 40 140
270 2 2 14 11 14 54 138
271 2 2 14 11 23 53 139
272 2 2 14 11 5 56 140
273 2 2 14 11 32 55 141
274 2 2 14 11 128 110 137
275 2 2 14 11 53 119 139
276 2 2 14 11 54 120 138
277 2 2 14 11 55 121 141
278 2 2 14 11 56 123 140
279 2 2 14 11 106 128 137
280 2 2 14 11 126 87 142
281 2 2 14 11 87 130 142
282 2 2 14 11 130 51 142
$EndElements
