$MeshFormat
2.1 0 8
$EndMeshFormat
$Nodes
482
1 0 0 0
2 2 0 0
3 2 2 0
4 0 2 0
5 0.1052631578944842 2 0
6 0.2105263157889683 2 0
7 0.3157894736834525 2 0
8 0.4210526315779367 2 0
9 0.5263157894724442 2 0
10 0.6315789473670218 2 0
11 0.7368421052615994 2 0
12 0.8421052631561771 2 0
13 0.9473684210507546 2 0
14 1.052631578945478 2 0
15 1.157894736840348 2 0
16 1.263157894735218 2 0
17 1.368421052630088 2 0
18 1.473684210524958 2 0
19 1.578947368419937 2 0
20 1.684210526314953 2 0
21 1.789473684209969 2 0
22 1.894736842104984 2 0
23 2 1.894736842105409 0
24 2 1.789473684210819 0
25 2 1.684210526316228 0
26 2 1.578947368421637 0
27 2 1.473684210527119 0
28 2 1.368421052632821 0
29 2 1.263157894738522 0
30 2 1.157894736844224 0
31 2 1.052631578949925 0
32 2 0.9473684210553341 0
33 2 0.8421052631604511 0
34 2 0.7368421052655683 0
35 2 0.6315789473706852 0
36 2 0.5263157894758024 0
37 2 0.4210526315807004 0
38 2 0.3157894736855251 0
39 2 0.2105263157903501 0
40 2 0.105263157895175 0
41 1.894736842105409 0 0
42 1.789473684210819 0 0
43 1.684210526316228 0 0
44 1.578947368421637 0 0
45 1.473684210527119 0 0
46 1.368421052632821 0 0
47 1.263157894738522 0 0
48 1.157894736844224 0 0
49 1.052631578949925 0 0
50 0.9473684210553341 0 0
51 0.8421052631604511 0 0
52 0.7368421052655683 0 0
53 0.6315789473706852 0 0
54 0.5263157894758024 0 0
55 0.4210526315807004 0 0
56 0.3157894736855251 0 0
57 0.2105263157903501 0 0
58 0.105263157895175 0 0
59 0 0.1052631578944842 0
60 0 0.2105263157889683 0
61 0 0.3157894736834525 0
62 0 0.4210526315779367 0
63 0 0.5263157894724442 0
64 0 0.6315789473670218 0
65 0 0.7368421052615994 0
66 0 0.8421052631561771 0
67 0 0.9473684210507546 0
68 0 1.052631578945478 0
69 0 1.157894736840348 0
70 0 1.263157894735218 0
71 0 1.368421052630088 0
72 0 1.473684210524958 0
73 0 1.578947368419937 0
74 0 1.684210526314953 0
75 0 1.789473684209969 0
76 0 1.894736842104984 0
77 0.8102978125193493 1.202905237363608 0
78 1.356512782049947 0.6159618985877058 0
79 0.5328099559653899 0.5005157398323648 0
80 1.533918054629766 1.35960982810044 0
81 0.4873578750727536 1.552537470831731 0
82 0.3769904298216518 0.3614921840582214 0
83 0.3726171358622873 1.685801184227108 0
84 1.776965116592209 0.202701869495834 0
85 0.2025297215670739 0.1999629376115008 0
86 1.937443247283601 0.1452376475921839 0
87 1.447119392798317 1.0224382276989 0
88 0.9345054986384024 0.5609311923413985 0
89 0.3940751645237067 1.139241670149465 0
90 0.8815835764672988 1.581298878471831 0
91 1.073466954219273 0.9204591973822703 0
92 0.6705203138557744 0.8452476208805586 0
93 1.123558157494756 0.256324809840425 0
94 1.182746810984543 1.297033954399871 0
95 1.794757451706935 1.14830275475788 0
96 0.7971490265629874 0.2133698650497967 0
97 1.290021785046048 1.690390952717494 0
98 1.656462541754249 0.5841406453535921 0
99 0.2895287894190827 0.7521496599093195 0
100 1.35586731778443 0.2869682173505383 0
101 0.3173977808293664 0.5471562971100364 0
102 0.5721632159741901 0.2313343881843728 0
103 1.416493449732561 1.895135835579111 0
104 1.737011772947079 1.361396860966433 0
105 0.09862667222445075 0.5051071879200281 0
106 1.829810635195826 0.5677375677494335 0
107 0.4921513788060508 0.07841013786178344 0
108 0.5247500188106148 1.787664573891208 0
109 1.529882506505371 1.803209650893296 0
110 0.1956216098678004 1.594458613803507 0
111 1.658484116587105 0.1995199165219005 0
112 0.1808708338443788 0.3753613241600388 0
113 1.623385291694228 1.841412205666946 0
114 0.09888066481291717 1.653531823234737 0
115 1.484978378757155 0.4632476681115493 0
116 1.714476719353415 1.897992494934211 0
117 0.1061347061782133 1.763537740899581 0
118 1.899396881287169 0.2408096763212963 0
119 0.2720742485439208 0.1070201538401249 0
120 0.1144178915272553 0.2796971337842528 0
121 1.728674997779686 0.09799237811392762 0
122 0.2752958122203084 1.894450543533575 0
123 1.902491676711697 1.845418559810488 0
124 1.853429560656834 0.1019852951857062 0
125 0.1480794125468386 1.891387555748118 0
126 0.09434416312539413 0.164557797990286 0
127 1.557984921424624 1.515739091261179 0
128 0.3017771719912419 0.2664234701459209 0
129 0.4503701316595172 0.4341789753519506 0
130 0.6085585555664472 1.150356286957296 0
131 1.237008571431778 0.409376816717983 0
132 1.557935902782593 0.7447562095737274 0
133 0.467102740788273 0.8065854583168087 0
134 0.5318008680954772 0.9898379326210994 0
135 1.129635555610911 0.5817017062575017 0
136 1.207938120273523 0.7741150641785671 0
137 1.048168332786381 1.444018320901082 0
138 1.0971057420289 1.646406444844884 0
139 0.8861916086002257 1.377169787781559 0
140 0.4008513856424686 0.6181454978697692 0
141 0.4091808988327877 1.361776395985259 0
142 1.23623826863615 1.488347655337323 0
143 0.665755283294181 1.59807549636867 0
144 0.8758574584623888 0.8806190031142237 0
145 1.407468247809213 0.8376035851746241 0
146 1.436649004605563 1.518801009309862 0
147 1.146005919600845 1.837064382213214 0
148 1.130881186470108 1.107384295931028 0
149 0.9462472014081248 1.816405545022761 0
150 0.6075806809382849 1.685999068691072 0
151 0.7423926346488633 1.022626452869732 0
152 1.620850751412289 1.079362895469993 0
153 0.8099099647528716 0.7065379858111279 0
154 0.6948379326084895 0.3720118169496662 0
155 0.3193733124633108 1.420236899262496 0
156 1.310463806293742 1.151593887614347 0
157 1.006706700456896 0.7372021974259236 0
158 1.000770198297755 1.246393881617687 0
159 0.7447267421613969 0.5340636391005083 0
160 1.263362670226398 0.9681966957229191 0
161 0.3222929015164737 0.9304213935790568 0
162 0.5263556570034296 1.333055717789269 0
163 1.667997120596011 1.258622856176295 0
164 1.403298163483278 0.4419522990393271 0
165 0.9409604565327919 1.061220157378015 0
166 0.85613738872919 0.3922435408098 0
167 0.7404218057640757 1.428660718247827 0
168 1.034505623042186 0.4072480756463133 0
169 0.1719990054464604 1.105120066581449 0
170 1.589370401984517 0.912714223030806 0
171 1.484661144438775 1.19383317919098 0
172 0.610366137943002 0.67320667491552 0
173 1.803550454308052 0.6638125067436751 0
174 1.359147451562698 1.329127087411073 0
175 1.308914093737411 1.899557255730719 0
176 1.229586328918425 0.09335037180854192 0
177 1.521862398053454 0.5695965387504633 0
178 0.688853309815197 0.07860381113018022 0
179 0.1716057265938318 0.6105253814234664 0
180 0.4807889715874073 1.675606995807963 0
181 1.721336650770267 0.5175635638739452 0
182 1.760180790154253 0.9709020813698047 0
183 0.4226342982678735 0.5204409269718416 0
184 1.483595967077887 1.634551104359991 0
185 1.2463462931609 0.2338484230439305 0
186 1.704322436322641 0.6746642937998549 0
187 1.889622537098084 1.003522127907522 0
188 1.449468884313345 0.3535900192611691 0
189 1.624118495163383 1.357245265099335 0
190 0.5901800822725137 0.1127893194322856 0
191 0.7450495289073194 1.314899282883515 0
192 1.554470393113338 0.2757006410180583 0
193 0.279645770535793 0.6142396157178731 0
194 0.6886266896071059 0.1852611180725726 0
195 1.902053022891651 0.8236274907203546 0
196 1.654639325781089 1.441498366762513 0
197 1.851997984498828 1.535716102356565 0
198 1.323062929091812 0.1312588535993698 0
199 0.1111149984319998 0.8090674292710474 0
200 1.470022377311558 1.755305624395252 0
201 1.778544096169402 1.250628463021339 0
202 1.528611193679497 1.900232534203826 0
203 0.1626999245091455 1.484374220589222 0
204 0.5905621195855723 1.402152174309606 0
205 1.599402197693137 0.4940136752722317 0
206 1.391085287251441 1.814780893477318 0
207 0.4895651760590966 0.3201036584621471 0
208 0.09181296714145763 0.3906067556074358 0
209 1.617970452633313 0.09082775817426421 0
210 0.435132705591146 1.743057584222786 0
211 0.4947980841766661 0.2442374435786366 0
212 1.90196954986864 0.3745933031633708 0
213 0.3906548333073605 0.08810086302301179 0
214 1.746665213962788 0.6019751250947086 0
215 1.461330085548256 1.830995856432722 0
216 1.910067790693563 0.4910962316637484 0
217 1.769261297341136 1.481791358695944 0
218 0.2115555364702663 0.5326470896065704 0
219 0.3746534351625462 1.896966599985008 0
220 1.572437440850602 1.428077892147289 0
221 0.2515567398036301 0.4585838097495549 0
222 0.2836112437673 1.639362856635703 0
223 0.4167759505747103 0.2585859719333085 0
224 0.3799540904676623 1.593884589631782 0
225 1.681843795420637 1.546059899840476 0
226 1.901558531431262 0.6505004477357099 0
227 0.2770177676017116 0.3737687866156134 0
228 1.625121698072462 1.930327198692294 0
229 0.3481801417728234 0.4507957969120298 0
230 0.09002038540871575 1.540113845401711 0
231 0.213467713927976 0.3003561183796522 0
232 0.4253630781640757 1.820996502080048 0
233 0.08192653662217089 0.5963415111104589 0
234 0.1668845498968367 0.4524612334087256 0
235 1.449406460663353 0.2298750733275859 0
236 0.3408038712353921 1.799964626554119 0
237 0.354908780718992 0.1800770673627452 0
238 1.532805348120458 0.1640908241986715 0
239 1.52238906478503 0.07402341160044254 0
240 0.471991002051134 0.1708988962350354 0
241 1.89168211566259 1.746210485520457 0
242 0.7692719054249307 1.908727878971617 0
243 1.666833475175132 0.311388506338427 0
244 1.69566274935739 1.77597799805303 0
245 0.2841974700542725 1.731280523593618 0
246 1.601604025011474 1.610880097315927 0
247 0.07941825736184641 1.299472388450047 0
248 0.07536543421090354 0.07965026283518908 0
249 1.937121930009169 0.07049722013461304 0
250 1.924948948655401 1.917757096186134 0
251 1.585593565403223 1.721947934750484 0
252 0.159360775011566 0.0902789838232121 0
253 1.831849757976494 1.91695081995548 0
254 0.1090368951618361 0.9169655867749452 0
255 0.09920299583628632 1.200934496536714 0
256 0.2137794520414246 0.8810933326146578 0
257 0.2775531532973323 1.11238869954174 0
258 1.312358766896679 0.4937277772472147 0
259 0.2170591968095161 1.20626553540681 0
260 0.9194350311372491 1.694389766314306 0
261 1.235571917483281 0.593311924924966 0
262 1.480070873950898 0.6720150958831636 0
263 1.387706135249355 0.7345872139710598 0
264 1.364930199253723 1.608697248861629 0
265 0.2283256819846286 0.999747362658068 0
266 0.5101310467279611 1.148997005728622 0
267 0.3534181703459906 1.03565276724436 0
268 1.018748171318816 1.720554492372761 0
269 1.277387326554855 0.7000738546837023 0
270 0.9930819697823515 1.617882956082466 0
271 0.8379763330224392 1.869094845300079 0
272 0.7994228328348269 1.497094096781255 0
273 1.265400786017248 1.587135248963961 0
274 1.211930821680936 1.763147760098992 0
275 0.6387967632308579 1.006669739403624 0
276 0.9734850150440536 1.513526546801374 0
277 0.4650149722604688 1.059492597433457 0
278 1.191789217856796 1.666057741151816 0
279 0.8843395632314807 1.463733573452943 0
280 0.4269486184316054 0.9644722702160763 0
281 0.774556219786707 0.863115997721883 0
282 1.308602137366979 0.8033680319284758 0
283 0.571523026921351 1.603958989912632 0
284 0.5679838117687809 0.8280860330109086 0
285 0.8304567626213862 1.753865144395481 0
286 1.167873021280026 1.567408985463047 0
287 1.026799202127246 1.342706588136949 0
288 1.070302882082967 1.543032672234124 0
289 1.171014050093993 0.6772066660117654 0
290 0.3978014361116244 1.480472070862389 0
291 0.7097784971315454 0.6898798821775718 0
292 1.106112670788924 0.753765866286411 0
293 1.237746949241594 0.8732570149115363 0
294 1.299786766180145 1.405648560793716 0
295 0.6017835833776786 0.9171118901981487 0
296 0.9749494579861535 0.8997938131012603 0
297 1.182929712082506 0.4987771552777685 0
298 0.8433890659847175 1.039845941230378 0
299 0.5399346714259367 0.7408733137770357 0
300 1.117075021879234 1.369968712859027 0
301 0.5724210923674881 1.075332526152217 0
302 1.082860634878599 0.4913479710781739 0
303 1.839355884177984 0.9008224689369077 0
304 0.764728766846968 1.582016018500666 0
305 0.6928170804818647 1.198364960436824 0
306 1.502079014733741 0.8758489250594596 0
307 1.139294192188783 0.8490550689015933 0
308 1.156891601276889 1.201157166475624 0
309 1.069977670495153 0.6619123814220244 0
310 1.208285404954467 1.390666702038573 0
311 0.9084014057952196 0.7217418739903834 0
312 1.037090665089764 1.083856112533108 0
313 0.7414641555661793 0.7761179519867899 0
314 0.8085522940712787 0.9515343146178824 0
315 0.6452938726194218 0.517997695664289 0
316 1.102842308380074 1.014033969480318 0
317 1.040417171392899 0.8280819152376346 0
318 0.6726802274379056 1.090905450699271 0
319 0.5099359500790653 0.6528563541349853 0
320 1.006401628827228 0.9915979296965611 0
321 0.678653422141311 0.6043585253475556 0
322 0.6247579883274409 0.4276598041386946 0
323 0.9721278212987321 1.152381942006454 0
324 1.246135485106813 1.222056201785278 0
325 1.485921113457793 0.781248985168765 0
326 1.169116797018348 0.9437939844678862 0
327 0.6008393561668532 1.504828084155638 0
328 0.4982005220512568 0.8962444439959177 0
329 0.7061003014951934 0.934384335948638 0
330 0.9077433824344644 1.220195735356983 0
331 0.8257029205015851 1.658736012262766 0
332 1.333362809751723 0.9010613669746287 0
333 0.2977648524798648 0.8299333404041036 0
334 1.30111175034419 1.790602969274368 0
335 0.8746281128250332 0.6348294881214325 0
336 0.9083517269774265 0.9707685265230536 0
337 1.029304845668167 0.5715854435193205 0
338 0.8385090420974901 0.5483997146751429 0
339 0.9417989187508188 0.8101798865951668 0
340 1.355984994955922 0.9943192768243535 0
341 0.32811621719902 1.216406213650722 0
342 1.195543152173639 1.036907900408382 0
343 0.8935624785980675 0.4743746286046449 0
344 0.3730788287814497 0.7791610357972557 0
345 0.8440791217150846 1.303947615114459 0
346 0.4437151498071277 1.242735086910295 0
347 1.065130297208225 1.177272318676396 0
348 1.141323821936537 1.467240508138863 0
349 1.332510033358133 1.503699652227257 0
350 1.091568855295649 1.272422103694259 0
351 1.127626484459685 0.413232366408422 0
352 1.3770349278171 1.084405558795617 0
353 1.11892285467009 1.740488736372045 0
354 0.489669610471884 0.5762960342990076 0
355 0.9596739774432365 1.408464301695872 0
356 0.9705873723131453 0.6480337628034139 0
357 1.287205007625673 1.060704196688761 0
358 1.056357686085452 1.806681316072636 0
359 0.7132149999454701 0.4482396343743989 0
360 1.535959178824636 1.052010065292319 0
361 1.334290738290107 1.241682516346185 0
362 1.427628915187376 0.9331093920950115 0
363 1.5730915724949 0.8265636914375553 0
364 0.7735848972281078 1.11104151106139 0
365 0.776034296851608 0.6196782058722231 0
366 0.397564744008154 0.8678029903848699 0
367 1.418972703763887 1.256923511382943 0
368 1.179499976683885 0.3338184642061386 0
369 0.9865685569139798 0.4839232242323302 0
370 0.8419980205190308 0.7930521165365958 0
371 0.8746839059996939 1.131265087399471 0
372 1.221186706491144 1.129967274817237 0
373 1.392990694122423 1.426658536627789 0
374 0.9440058275276176 0.4020056384635295 0
375 1.398541895127105 1.172560329959915 0
376 0.6400079312818697 0.7589019127913974 0
377 0.8024480970065562 0.4620515191210181 0
378 0.5856480899106727 1.893159613542329 0
379 1.655693789760301 0.7733323542250546 0
380 0.2132756635632473 0.7775235119157123 0
381 1.552536020322064 1.134872247275323 0
382 1.518370219623028 0.9657211901732655 0
383 0.937542915103002 1.316479651617251 0
384 0.08292011326243134 1.455686835837908 0
385 1.271732109513129 1.31436917046245 0
386 1.465975426554666 1.110019934702176 0
387 0.4402076679253766 0.7148347676050134 0
388 0.5777881582033456 0.587538504032287 0
389 1.571768805739919 1.218010202254075 0
390 0.7715587503525692 0.3824922858534315 0
391 0.1151412185608271 0.6923708494678741 0
392 0.3349057008579883 0.6940178432437336 0
393 0.997322055243273 0.319799953072765 0
394 0.9693430731303548 0.2159211739893449 0
395 1.579723399322208 1.292417279668444 0
396 1.725715103790497 1.181182623367438 0
397 0.7289215262280501 1.692576701747673 0
398 1.603726870634049 0.9965504335606629 0
399 0.5463475009228364 0.3970533626361624 0
400 1.067528049926033 0.1808410710697046 0
401 1.41327350365418 0.5305388822503369 0
402 1.672344205087074 0.9452986483001475 0
403 1.6870404689307 1.023426393372607 0
404 1.926206288833544 0.9034891543561138 0
405 1.923686097191506 1.403680289303104 0
406 0.08118908722019308 1.105133328947788 0
407 1.080483079428863 0.3329934655425891 0
408 0.9079746347671103 0.3145238251522444 0
409 0.7539436538006802 1.815357417795138 0
410 1.820816480620389 0.8207380564353318 0
411 1.862248285124076 0.7421172385481826 0
412 1.115242478421092 0.09063784748338348 0
413 0.234017144921795 0.6901378102796633 0
414 1.764812630153707 0.7604341451445645 0
415 1.046217331701108 0.260402868322836 0
416 0.2822772716533707 1.520990777489042 0
417 1.35242879306531 0.2026647108566857 0
418 1.155814049595409 0.1754577692785366 0
419 1.646548860822715 0.8691698676217705 0
420 1.640006029995564 1.16232190536689 0
421 1.431742551269415 0.1145589819403936 0
422 0.7206589152706128 0.2927926998478357 0
423 0.8121983999322029 1.396921791206113 0
424 1.837689708925534 1.434321910601388 0
425 1.708918489862988 1.105248648658248 0
426 1.449561638635814 1.351202353291217 0
427 0.1996506580783971 1.696255190366907 0
428 1.234082637209169 1.844903381008489 0
429 0.1210711793173441 1.382095521588941 0
430 1.275327775430555 0.3260374770502014 0
431 0.8196674758613963 0.3159933160521645 0
432 1.782552460210042 0.3218560123324477 0
433 0.2944030219598801 1.310278833706731 0
434 1.571916244590587 0.3855608661752132 0
435 1.44292988942712 0.5970281038679174 0
436 1.34156380712619 0.3843915824770283 0
437 0.8740412428673974 0.2312084373361028 0
438 1.887503877687329 1.620983926683271 0
439 0.705086807113627 1.502645736091242 0
440 1.506434291088395 1.27866605898135 0
441 1.782202380370557 1.051632992297707 0
442 0.2243945613650804 1.801358216686166 0
443 1.737107520110918 0.8629568031476546 0
444 1.892761627867753 1.101312125359147 0
445 0.6709983538842872 1.404002740878597 0
446 0.5712425195930684 1.224708460136464 0
447 0.5020162237955036 1.439136985655648 0
448 0.4742083883066812 1.903413171006787 0
449 0.6918383267588349 1.895892760787895 0
450 1.932623625953573 0.5695651311186281 0
451 1.805214913635767 1.813198300928926 0
452 0.6144571597499009 0.3282942185828163 0
453 1.596016358621446 0.6684677991589717 0
454 1.490590292378132 1.433348118456296 0
455 1.383461227714141 1.715721465514342 0
456 0.9251123004133767 1.920878762941047 0
457 0.1731494837657586 1.30192742641895 0
458 0.2286287327571291 1.404598615623095 0
459 0.7876134093278251 0.09927237377380185 0
460 1.193653260925397 1.91673640722247 0
461 1.774058493741024 1.591604437236815 0
462 0.1010012385129637 1.022411711898967 0
463 1.79075765503351 1.700885714214516 0
464 1.690423780116963 1.657339136864599 0
465 0.631794191398149 1.310150975662385 0
466 0.6487803827411897 1.795108356075886 0
467 1.924320338743696 1.511306905725553 0
468 0.2828224807053071 0.188370907240073 0
469 1.053158888158722 1.912220801684016 0
470 0.06136913953445879 1.857300848803029 0
471 0.3705791424285536 1.281494054062458 0
472 1.890900271051645 1.224292571638823 0
473 1.848250875479654 1.33065828539066 0
474 1.932567448744561 1.318042018740786 0
475 0.9879911986066298 0.09861053616630654 0
476 1.695749441485697 0.4148675483104479 0
477 0.8844474738926774 0.1536651653852569 0
478 1.808472393245322 0.4499818196136259 0
479 0.0629423419951563 1.928685049331226 0
480 0.8905468928608699 0.0636086059961887 0
481 1.721208792141122 0.2588665761721523 0
482 0.6489764951504524 0.2594206061718993 0
$EndNodes
$Elements
962
1 1 3 12 1 0 4 5
2 1 3 12 1 0 5 6
3 1 3 12 1 0 6 7
4 1 3 12 1 0 7 8
5 1 3 12 1 0 8 9
6 1 3 12 1 0 9 10
7 1 3 12 1 0 10 11
8 1 3 12 1 0 11 12
9 1 3 12 1 0 12 13
10 1 3 12 1 0 13 14
11 1 3 12 1 0 14 15
12 1 3 12 1 0 15 16
13 1 3 12 1 0 16 17
14 1 3 12 1 0 17 18
15 1 3 12 1 0 18 19
16 1 3 12 1 0 19 20
17 1 3 12 1 0 20 21
18 1 3 12 1 0 21 22
19 1 3 12 1 0 22 3
20 1 3 12 2 0 3 23
21 1 3 12 2 0 23 24
22 1 3 12 2 0 24 25
23 1 3 12 2 0 25 26
24 1 3 12 2 0 26 27
25 1 3 12 2 0 27 28
26 1 3 12 2 0 28 29
27 1 3 12 2 0 29 30
28 1 3 12 2 0 30 31
29 1 3 12 2 0 31 32
30 1 3 12 2 0 32 33
31 1 3 12 2 0 33 34
32 1 3 12 2 0 34 35
33 1 3 12 2 0 35 36
34 1 3 12 2 0 36 37
35 1 3 12 2 0 37 38
36 1 3 12 2 0 38 39
37 1 3 12 2 0 39 40
38 1 3 12 2 0 40 2
39 1 3 12 3 0 2 41
40 1 3 12 3 0 41 42
41 1 3 12 3 0 42 43
42 1 3 12 3 0 43 44
43 1 3 12 3 0 44 45
44 1 3 12 3 0 45 46
45 1 3 12 3 0 46 47
46 1 3 12 3 0 47 48
47 1 3 12 3 0 48 49
48 1 3 12 3 0 49 50
49 1 3 12 3 0 50 51
50 1 3 12 3 0 51 52
51 1 3 12 3 0 52 53
52 1 3 12 3 0 53 54
53 1 3 12 3 0 54 55
54 1 3 12 3 0 55 56
55 1 3 12 3 0 56 57
56 1 3 12 3 0 57 58
57 1 3 12 3 0 58 1
58 1 3 12 4 0 1 59
59 1 3 12 4 0 59 60
60 1 3 12 4 0 60 61
61 1 3 12 4 0 61 62
62 1 3 12 4 0 62 63
63 1 3 12 4 0 63 64
64 1 3 12 4 0 64 65
65 1 3 12 4 0 65 66
66 1 3 12 4 0 66 67
67 1 3 12 4 0 67 68
68 1 3 12 4 0 68 69
69 1 3 12 4 0 69 70
70 1 3 12 4 0 70 71
71 1 3 12 4 0 71 72
72 1 3 12 4 0 72 73
73 1 3 12 4 0 73 74
74 1 3 12 4 0 74 75
75 1 3 12 4 0 75 76
76 1 3 12 4 0 76 4
77 2 3 14 11 0 86 39 40
78 2 3 14 11 0 118 39 86
79 2 3 14 11 0 61 120 60
80 2 3 14 11 0 43 121 42
81 2 3 14 11 0 7 122 6
82 2 3 14 11 0 18 103 17
83 2 3 14 11 0 86 124 118
84 2 3 14 11 0 124 84 118
85 2 3 14 11 0 123 23 24
86 2 3 14 11 0 125 5 6
87 2 3 14 11 0 122 125 6
88 2 3 14 11 0 124 41 42
89 2 3 14 11 0 121 124 42
90 2 3 14 11 0 126 59 60
91 2 3 14 11 0 120 126 60
92 2 3 14 11 0 117 74 75
93 2 3 14 11 0 116 20 21
94 2 3 14 11 0 119 56 57
95 2 3 14 11 0 118 38 39
96 2 3 14 11 0 121 111 84
97 2 3 14 11 0 121 84 124
98 2 3 14 11 0 120 85 126
99 2 3 14 11 0 105 62 63
100 2 3 14 11 0 55 107 54
101 2 3 14 11 0 176 47 48
102 2 3 14 11 0 53 178 52
103 2 3 14 11 0 180 108 150
104 2 3 14 11 0 183 79 129
105 2 3 14 11 0 183 101 140
106 2 3 14 11 0 32 187 31
107 2 3 14 11 0 115 188 164
108 2 3 14 11 0 189 104 163
109 2 3 14 11 0 53 190 178
110 2 3 14 11 0 101 193 140
111 2 3 14 11 0 196 104 189
112 2 3 14 11 0 104 201 163
113 2 3 14 11 0 109 202 113
114 2 3 14 11 0 98 205 177
115 2 3 14 11 0 205 115 177
116 2 3 14 11 0 103 206 175
117 2 3 14 11 0 208 112 120
118 2 3 14 11 0 208 62 105
119 2 3 14 11 0 209 111 121
120 2 3 14 11 0 210 108 180
121 2 3 14 11 0 83 210 180
122 2 3 14 11 0 55 213 107
123 2 3 14 11 0 214 106 181
124 2 3 14 11 0 106 214 173
125 2 3 14 11 0 98 214 181
126 2 3 14 11 0 215 109 200
127 2 3 14 11 0 37 216 36
128 2 3 14 11 0 216 37 212
129 2 3 14 11 0 217 104 196
130 2 3 14 11 0 218 105 179
131 2 3 14 11 0 80 220 189
132 2 3 14 11 0 101 221 218
133 2 3 14 11 0 81 224 180
134 2 3 14 11 0 224 83 180
135 2 3 14 11 0 127 225 196
136 2 3 14 11 0 227 112 221
137 2 3 14 11 0 228 113 202
138 2 3 14 11 0 19 228 202
139 2 3 14 11 0 85 231 128
140 2 3 14 11 0 112 231 120
141 2 3 14 11 0 231 85 120
142 2 3 14 11 0 232 108 210
143 2 3 14 11 0 64 233 63
144 2 3 14 11 0 105 233 179
145 2 3 14 11 0 233 105 63
146 2 3 14 11 0 105 234 208
147 2 3 14 11 0 234 112 208
148 2 3 14 11 0 234 105 218
149 2 3 14 11 0 83 236 210
150 2 3 14 11 0 238 111 209
151 2 3 14 11 0 111 238 192
152 2 3 14 11 0 240 102 190
153 2 3 14 11 0 107 240 190
154 2 3 14 11 0 102 240 211
155 2 3 14 11 0 244 113 116
156 2 3 14 11 0 127 246 225
157 2 3 14 11 0 59 248 1
158 2 3 14 11 0 248 58 1
159 2 3 14 11 0 41 249 2
160 2 3 14 11 0 40 249 86
161 2 3 14 11 0 249 40 2
162 2 3 14 11 0 250 22 3
163 2 3 14 11 0 23 250 3
164 2 3 14 11 0 252 126 85
165 2 3 14 11 0 119 252 85
166 2 3 14 11 0 20 228 19
167 2 3 14 11 0 123 250 23
168 2 3 14 11 0 124 249 41
169 2 3 14 11 0 124 86 249
170 2 3 14 11 0 126 248 59
171 2 3 14 11 0 186 214 98
172 2 3 14 11 0 186 173 214
173 2 3 14 11 0 194 190 102
174 2 3 14 11 0 178 190 194
175 2 3 14 11 0 218 193 101
176 2 3 14 11 0 179 193 218
177 2 3 14 11 0 251 200 109
178 2 3 14 11 0 184 200 251
179 2 3 14 11 0 196 220 127
180 2 3 14 11 0 196 189 220
181 2 3 14 11 0 217 196 225
182 2 3 14 11 0 224 222 83
183 2 3 14 11 0 215 206 103
184 2 3 14 11 0 200 206 215
185 2 3 14 11 0 232 210 236
186 2 3 14 11 0 234 221 112
187 2 3 14 11 0 218 221 234
188 2 3 14 11 0 112 227 231
189 2 3 14 11 0 229 101 183
190 2 3 14 11 0 129 229 183
191 2 3 14 11 0 82 223 128
192 2 3 14 11 0 227 82 128
193 2 3 14 11 0 231 227 128
194 2 3 14 11 0 251 109 113
195 2 3 14 11 0 227 229 82
196 2 3 14 11 0 101 229 221
197 2 3 14 11 0 221 229 227
198 2 3 14 11 0 82 229 129
199 2 3 14 11 0 176 185 198
200 2 3 14 11 0 66 199 65
201 2 3 14 11 0 12 242 11
202 2 3 14 11 0 239 44 45
203 2 3 14 11 0 44 239 209
204 2 3 14 11 0 209 239 238
205 2 3 14 11 0 247 70 71
206 2 3 14 11 0 226 34 35
207 2 3 14 11 0 226 106 173
208 2 3 14 11 0 34 195 33
209 2 3 14 11 0 18 202 103
210 2 3 14 11 0 202 18 19
211 2 3 14 11 0 109 215 202
212 2 3 14 11 0 215 103 202
213 2 3 14 11 0 7 8 219
214 2 3 14 11 0 122 7 219
215 2 3 14 11 0 25 241 24
216 2 3 14 11 0 241 123 24
217 2 3 14 11 0 20 116 228
218 2 3 14 11 0 113 228 116
219 2 3 14 11 0 43 44 209
220 2 3 14 11 0 121 43 209
221 2 3 14 11 0 223 82 207
222 2 3 14 11 0 207 82 129
223 2 3 14 11 0 102 211 207
224 2 3 14 11 0 207 211 223
225 2 3 14 11 0 61 62 208
226 2 3 14 11 0 120 61 208
227 2 3 14 11 0 184 127 146
228 2 3 14 11 0 128 223 237
229 2 3 14 11 0 127 184 246
230 2 3 14 11 0 251 246 184
231 2 3 14 11 0 212 37 38
232 2 3 14 11 0 38 118 212
233 2 3 14 11 0 17 175 16
234 2 3 14 11 0 17 103 175
235 2 3 14 11 0 213 55 56
236 2 3 14 11 0 56 119 213
237 2 3 14 11 0 119 237 213
238 2 3 14 11 0 113 244 251
239 2 3 14 11 0 253 21 22
240 2 3 14 11 0 116 21 253
241 2 3 14 11 0 22 250 253
242 2 3 14 11 0 123 253 250
243 2 3 14 11 0 230 72 73
244 2 3 14 11 0 110 230 114
245 2 3 14 11 0 110 203 230
246 2 3 14 11 0 205 98 181
247 2 3 14 11 0 235 100 188
248 2 3 14 11 0 188 192 235
249 2 3 14 11 0 245 236 83
250 2 3 14 11 0 83 222 245
251 2 3 14 11 0 114 74 117
252 2 3 14 11 0 256 199 254
253 2 3 14 11 0 259 169 255
254 2 3 14 11 0 169 259 257
255 2 3 14 11 0 261 78 258
256 2 3 14 11 0 78 263 262
257 2 3 14 11 0 146 264 184
258 2 3 14 11 0 265 169 257
259 2 3 14 11 0 89 267 257
260 2 3 14 11 0 149 268 260
261 2 3 14 11 0 269 78 261
262 2 3 14 11 0 78 269 263
263 2 3 14 11 0 270 90 260
264 2 3 14 11 0 271 242 12
265 2 3 14 11 0 273 97 264
266 2 3 14 11 0 276 90 270
267 2 3 14 11 0 277 89 266
268 2 3 14 11 0 89 277 267
269 2 3 14 11 0 278 97 273
270 2 3 14 11 0 97 278 274
271 2 3 14 11 0 90 279 272
272 2 3 14 11 0 279 90 276
273 2 3 14 11 0 280 161 267
274 2 3 14 11 0 282 145 263
275 2 3 14 11 0 150 283 180
276 2 3 14 11 0 283 150 143
277 2 3 14 11 0 283 81 180
278 2 3 14 11 0 285 149 260
279 2 3 14 11 0 149 285 271
280 2 3 14 11 0 142 286 273
281 2 3 14 11 0 288 138 286
282 2 3 14 11 0 138 288 270
283 2 3 14 11 0 135 289 261
284 2 3 14 11 0 292 136 289
285 2 3 14 11 0 136 293 282
286 2 3 14 11 0 295 134 275
287 2 3 14 11 0 295 92 284
288 2 3 14 11 0 131 297 258
289 2 3 14 11 0 299 133 284
290 2 3 14 11 0 137 300 287
291 2 3 14 11 0 130 301 266
292 2 3 14 11 0 134 301 275
293 2 3 14 11 0 302 135 297
294 2 3 14 11 0 303 182 187
295 2 3 14 11 0 304 90 272
296 2 3 14 11 0 77 305 191
297 2 3 14 11 0 136 307 293
298 2 3 14 11 0 307 136 292
299 2 3 14 11 0 135 309 289
300 2 3 14 11 0 310 142 294
301 2 3 14 11 0 310 94 300
302 2 3 14 11 0 313 92 281
303 2 3 14 11 0 313 153 291
304 2 3 14 11 0 314 144 281
305 2 3 14 11 0 314 151 298
306 2 3 14 11 0 148 316 312
307 2 3 14 11 0 157 317 292
308 2 3 14 11 0 91 317 296
309 2 3 14 11 0 318 151 275
310 2 3 14 11 0 318 130 305
311 2 3 14 11 0 172 319 299
312 2 3 14 11 0 320 91 296
313 2 3 14 11 0 320 165 312
314 2 3 14 11 0 321 172 291
315 2 3 14 11 0 321 159 315
316 2 3 14 11 0 322 79 315
317 2 3 14 11 0 165 323 312
318 2 3 14 11 0 94 324 308
319 2 3 14 11 0 325 132 262
320 2 3 14 11 0 325 145 306
321 2 3 14 11 0 326 160 293
322 2 3 14 11 0 326 91 316
323 2 3 14 11 0 134 328 280
324 2 3 14 11 0 133 328 284
325 2 3 14 11 0 151 329 275
326 2 3 14 11 0 92 329 281
327 2 3 14 11 0 330 158 323
328 2 3 14 11 0 90 331 260
329 2 3 14 11 0 331 90 304
330 2 3 14 11 0 332 145 282
331 2 3 14 11 0 161 333 256
332 2 3 14 11 0 334 175 206
333 2 3 14 11 0 334 97 274
334 2 3 14 11 0 335 153 311
335 2 3 14 11 0 144 336 296
336 2 3 14 11 0 165 336 298
337 2 3 14 11 0 135 337 309
338 2 3 14 11 0 337 135 302
339 2 3 14 11 0 88 338 335
340 2 3 14 11 0 339 144 296
341 2 3 14 11 0 339 157 311
342 2 3 14 11 0 160 340 332
343 2 3 14 11 0 341 89 257
344 2 3 14 11 0 148 342 316
345 2 3 14 11 0 88 343 338
346 2 3 14 11 0 344 99 333
347 2 3 14 11 0 345 77 191
348 2 3 14 11 0 77 345 330
349 2 3 14 11 0 89 346 266
350 2 3 14 11 0 148 347 308
351 2 3 14 11 0 347 148 312
352 2 3 14 11 0 142 348 286
353 2 3 14 11 0 137 348 300
354 2 3 14 11 0 146 349 264
355 2 3 14 11 0 142 349 294
356 2 3 14 11 0 350 158 287
357 2 3 14 11 0 350 94 308
358 2 3 14 11 0 131 351 297
359 2 3 14 11 0 352 87 340
360 2 3 14 11 0 353 138 268
361 2 3 14 11 0 353 147 274
362 2 3 14 11 0 354 79 183
363 2 3 14 11 0 354 140 319
364 2 3 14 11 0 140 354 183
365 2 3 14 11 0 137 355 276
366 2 3 14 11 0 355 137 287
367 2 3 14 11 0 157 356 311
368 2 3 14 11 0 356 157 309
369 2 3 14 11 0 357 160 342
370 2 3 14 11 0 160 357 340
371 2 3 14 11 0 149 358 268
372 2 3 14 11 0 159 359 315
373 2 3 14 11 0 361 156 324
374 2 3 14 11 0 362 145 332
375 2 3 14 11 0 145 362 306
376 2 3 14 11 0 170 363 306
377 2 3 14 11 0 151 364 298
378 2 3 14 11 0 77 364 305
379 2 3 14 11 0 153 365 291
380 2 3 14 11 0 365 153 335
381 2 3 14 11 0 161 366 333
382 2 3 14 11 0 366 161 280
383 2 3 14 11 0 174 367 361
384 2 3 14 11 0 93 368 185
385 2 3 14 11 0 131 368 351
386 2 3 14 11 0 168 369 302
387 2 3 14 11 0 88 369 343
388 2 3 14 11 0 144 370 281
389 2 3 14 11 0 153 370 311
390 2 3 14 11 0 165 371 323
391 2 3 14 11 0 371 165 298
392 2 3 14 11 0 372 148 308
393 2 3 14 11 0 148 372 342
394 2 3 14 11 0 373 174 294
395 2 3 14 11 0 374 166 343
396 2 3 14 11 0 156 375 352
397 2 3 14 11 0 375 156 361
398 2 3 14 11 0 92 376 284
399 2 3 14 11 0 172 376 291
400 2 3 14 11 0 377 159 338
401 2 3 14 11 0 159 377 359
402 2 3 14 11 0 379 132 363
403 2 3 14 11 0 380 199 256
404 2 3 14 11 0 381 152 360
405 2 3 14 11 0 382 170 306
406 2 3 14 11 0 382 87 360
407 2 3 14 11 0 383 158 330
408 2 3 14 11 0 158 383 287
409 2 3 14 11 0 384 72 230
410 2 3 14 11 0 203 384 230
411 2 3 14 11 0 174 385 294
412 2 3 14 11 0 94 385 324
413 2 3 14 11 0 386 87 352
414 2 3 14 11 0 87 386 360
415 2 3 14 11 0 387 133 299
416 2 3 14 11 0 133 387 344
417 2 3 14 11 0 79 388 315
418 2 3 14 11 0 172 388 319
419 2 3 14 11 0 171 389 381
420 2 3 14 11 0 390 154 359
421 2 3 14 11 0 391 199 380
422 2 3 14 11 0 392 140 193
423 2 3 14 11 0 392 99 344
424 2 3 14 11 0 168 393 374
425 2 3 14 11 0 395 80 189
426 2 3 14 11 0 395 163 389
427 2 3 14 11 0 163 395 189
428 2 3 14 11 0 396 163 201
429 2 3 14 11 0 95 396 201
430 2 3 14 11 0 397 143 150
431 2 3 14 11 0 143 397 304
432 2 3 14 11 0 152 398 360
433 2 3 14 11 0 79 399 129
434 2 3 14 11 0 399 207 129
435 2 3 14 11 0 399 79 322
436 2 3 14 11 0 401 164 258
437 2 3 14 11 0 78 401 258
438 2 3 14 11 0 402 170 398
439 2 3 14 11 0 152 403 398
440 2 3 14 11 0 404 32 33
441 2 3 14 11 0 195 404 33
442 2 3 14 11 0 405 27 28
443 2 3 14 11 0 69 406 68
444 2 3 14 11 0 169 406 255
445 2 3 14 11 0 406 69 255
446 2 3 14 11 0 168 407 393
447 2 3 14 11 0 407 168 351
448 2 3 14 11 0 408 166 374
449 2 3 14 11 0 409 242 271
450 2 3 14 11 0 195 410 303
451 2 3 14 11 0 195 411 410
452 2 3 14 11 0 179 413 193
453 2 3 14 11 0 99 413 380
454 2 3 14 11 0 414 173 186
455 2 3 14 11 0 110 416 203
456 2 3 14 11 0 417 100 235
457 2 3 14 11 0 417 198 185
458 2 3 14 11 0 100 417 185
459 2 3 14 11 0 418 93 185
460 2 3 14 11 0 176 418 185
461 2 3 14 11 0 93 418 400
462 2 3 14 11 0 419 170 402
463 2 3 14 11 0 170 419 363
464 2 3 14 11 0 420 152 381
465 2 3 14 11 0 420 163 396
466 2 3 14 11 0 422 96 194
467 2 3 14 11 0 422 154 390
468 2 3 14 11 0 423 167 272
469 2 3 14 11 0 217 424 104
470 2 3 14 11 0 95 425 396
471 2 3 14 11 0 152 425 403
472 2 3 14 11 0 426 174 373
473 2 3 14 11 0 174 426 367
474 2 3 14 11 0 117 427 114
475 2 3 14 11 0 147 428 274
476 2 3 14 11 0 203 429 384
477 2 3 14 11 0 431 166 408
478 2 3 14 11 0 166 431 390
479 2 3 14 11 0 115 434 188
480 2 3 14 11 0 434 115 205
481 2 3 14 11 0 177 435 262
482 2 3 14 11 0 435 78 262
483 2 3 14 11 0 100 436 188
484 2 3 14 11 0 436 164 188
485 2 3 14 11 0 167 439 272
486 2 3 14 11 0 143 439 327
487 2 3 14 11 0 171 440 389
488 2 3 14 11 0 440 171 367
489 2 3 14 11 0 441 182 403
490 2 3 14 11 0 182 441 187
491 2 3 14 11 0 182 443 402
492 2 3 14 11 0 443 182 303
493 2 3 14 11 0 444 187 441
494 2 3 14 11 0 95 444 441
495 2 3 14 11 0 445 204 327
496 2 3 14 11 0 446 130 266
497 2 3 14 11 0 219 448 232
498 2 3 14 11 0 448 219 8
499 2 3 14 11 0 216 450 36
500 2 3 14 11 0 226 450 106
501 2 3 14 11 0 450 216 106
502 2 3 14 11 0 451 244 116
503 2 3 14 11 0 253 451 116
504 2 3 14 11 0 98 453 186
505 2 3 14 11 0 454 146 127
506 2 3 14 11 0 220 454 127
507 2 3 14 11 0 200 455 206
508 2 3 14 11 0 167 191 445
509 2 3 14 11 0 186 379 414
510 2 3 14 11 0 379 453 132
511 2 3 14 11 0 379 186 453
512 2 3 14 11 0 392 413 99
513 2 3 14 11 0 392 193 413
514 2 3 14 11 0 422 452 154
515 2 3 14 11 0 290 224 81
516 2 3 14 11 0 334 455 97
517 2 3 14 11 0 334 206 455
518 2 3 14 11 0 435 401 78
519 2 3 14 11 0 450 35 36
520 2 3 14 11 0 226 35 450
521 2 3 14 11 0 417 421 198
522 2 3 14 11 0 417 235 421
523 2 3 14 11 0 242 409 449
524 2 3 14 11 0 9 448 8
525 2 3 14 11 0 108 232 448
526 2 3 14 11 0 378 9 10
527 2 3 14 11 0 438 25 26
528 2 3 14 11 0 241 25 438
529 2 3 14 11 0 236 245 442
530 2 3 14 11 0 256 265 161
531 2 3 14 11 0 256 254 265
532 2 3 14 11 0 380 333 99
533 2 3 14 11 0 256 333 380
534 2 3 14 11 0 257 259 341
535 2 3 14 11 0 265 267 161
536 2 3 14 11 0 265 257 267
537 2 3 14 11 0 261 297 135
538 2 3 14 11 0 261 258 297
539 2 3 14 11 0 285 260 331
540 2 3 14 11 0 270 268 138
541 2 3 14 11 0 260 268 270
542 2 3 14 11 0 269 289 136
543 2 3 14 11 0 269 261 289
544 2 3 14 11 0 325 263 145
545 2 3 14 11 0 262 263 325
546 2 3 14 11 0 282 269 136
547 2 3 14 11 0 263 269 282
548 2 3 14 11 0 273 349 142
549 2 3 14 11 0 273 264 349
550 2 3 14 11 0 277 301 134
551 2 3 14 11 0 277 266 301
552 2 3 14 11 0 446 346 162
553 2 3 14 11 0 266 346 446
554 2 3 14 11 0 280 277 134
555 2 3 14 11 0 267 277 280
556 2 3 14 11 0 353 358 147
557 2 3 14 11 0 353 268 358
558 2 3 14 11 0 276 288 137
559 2 3 14 11 0 276 270 288
560 2 3 14 11 0 271 285 409
561 2 3 14 11 0 423 279 139
562 2 3 14 11 0 272 279 423
563 2 3 14 11 0 304 439 143
564 2 3 14 11 0 304 272 439
565 2 3 14 11 0 278 286 138
566 2 3 14 11 0 278 273 286
567 2 3 14 11 0 353 278 138
568 2 3 14 11 0 274 278 353
569 2 3 14 11 0 334 428 175
570 2 3 14 11 0 334 274 428
571 2 3 14 11 0 295 329 92
572 2 3 14 11 0 295 275 329
573 2 3 14 11 0 318 301 130
574 2 3 14 11 0 275 301 318
575 2 3 14 11 0 279 355 139
576 2 3 14 11 0 279 276 355
577 2 3 14 11 0 366 328 133
578 2 3 14 11 0 280 328 366
579 2 3 14 11 0 314 329 151
580 2 3 14 11 0 314 281 329
581 2 3 14 11 0 313 370 153
582 2 3 14 11 0 313 281 370
583 2 3 14 11 0 332 293 160
584 2 3 14 11 0 282 293 332
585 2 3 14 11 0 295 328 134
586 2 3 14 11 0 295 284 328
587 2 3 14 11 0 299 376 172
588 2 3 14 11 0 299 284 376
589 2 3 14 11 0 288 348 137
590 2 3 14 11 0 288 286 348
591 2 3 14 11 0 350 300 94
592 2 3 14 11 0 287 300 350
593 2 3 14 11 0 355 383 139
594 2 3 14 11 0 355 287 383
595 2 3 14 11 0 292 309 157
596 2 3 14 11 0 292 289 309
597 2 3 14 11 0 313 376 92
598 2 3 14 11 0 313 291 376
599 2 3 14 11 0 321 365 159
600 2 3 14 11 0 321 291 365
601 2 3 14 11 0 307 317 91
602 2 3 14 11 0 307 292 317
603 2 3 14 11 0 326 307 91
604 2 3 14 11 0 293 307 326
605 2 3 14 11 0 447 327 204
606 2 3 14 11 0 310 385 94
607 2 3 14 11 0 310 294 385
608 2 3 14 11 0 373 349 146
609 2 3 14 11 0 294 349 373
610 2 3 14 11 0 339 317 157
611 2 3 14 11 0 296 317 339
612 2 3 14 11 0 320 336 165
613 2 3 14 11 0 320 296 336
614 2 3 14 11 0 302 351 168
615 2 3 14 11 0 302 297 351
616 2 3 14 11 0 371 364 77
617 2 3 14 11 0 298 364 371
618 2 3 14 11 0 314 336 144
619 2 3 14 11 0 314 298 336
620 2 3 14 11 0 387 319 140
621 2 3 14 11 0 299 319 387
622 2 3 14 11 0 310 348 142
623 2 3 14 11 0 310 300 348
624 2 3 14 11 0 337 369 88
625 2 3 14 11 0 337 302 369
626 2 3 14 11 0 303 410 443
627 2 3 14 11 0 331 304 397
628 2 3 14 11 0 318 364 151
629 2 3 14 11 0 318 305 364
630 2 3 14 11 0 382 362 87
631 2 3 14 11 0 306 362 382
632 2 3 14 11 0 325 363 132
633 2 3 14 11 0 325 306 363
634 2 3 14 11 0 372 324 156
635 2 3 14 11 0 308 324 372
636 2 3 14 11 0 350 347 158
637 2 3 14 11 0 308 347 350
638 2 3 14 11 0 356 337 88
639 2 3 14 11 0 309 337 356
640 2 3 14 11 0 335 356 88
641 2 3 14 11 0 335 311 356
642 2 3 14 11 0 339 370 144
643 2 3 14 11 0 339 311 370
644 2 3 14 11 0 320 316 91
645 2 3 14 11 0 312 316 320
646 2 3 14 11 0 347 323 158
647 2 3 14 11 0 312 323 347
648 2 3 14 11 0 322 359 154
649 2 3 14 11 0 322 315 359
650 2 3 14 11 0 321 388 172
651 2 3 14 11 0 321 315 388
652 2 3 14 11 0 326 342 160
653 2 3 14 11 0 326 316 342
654 2 3 14 11 0 354 388 79
655 2 3 14 11 0 354 319 388
656 2 3 14 11 0 330 371 77
657 2 3 14 11 0 330 323 371
658 2 3 14 11 0 361 385 174
659 2 3 14 11 0 361 324 385
660 2 3 14 11 0 445 439 167
661 2 3 14 11 0 327 439 445
662 2 3 14 11 0 383 345 139
663 2 3 14 11 0 330 345 383
664 2 3 14 11 0 362 340 87
665 2 3 14 11 0 332 340 362
666 2 3 14 11 0 344 366 133
667 2 3 14 11 0 344 333 366
668 2 3 14 11 0 365 338 159
669 2 3 14 11 0 335 338 365
670 2 3 14 11 0 377 343 166
671 2 3 14 11 0 338 343 377
672 2 3 14 11 0 352 357 156
673 2 3 14 11 0 352 340 357
674 2 3 14 11 0 357 372 156
675 2 3 14 11 0 357 342 372
676 2 3 14 11 0 374 369 168
677 2 3 14 11 0 343 369 374
678 2 3 14 11 0 392 387 140
679 2 3 14 11 0 344 387 392
680 2 3 14 11 0 407 368 93
681 2 3 14 11 0 351 368 407
682 2 3 14 11 0 386 375 171
683 2 3 14 11 0 352 375 386
684 2 3 14 11 0 390 377 166
685 2 3 14 11 0 359 377 390
686 2 3 14 11 0 382 398 170
687 2 3 14 11 0 382 360 398
688 2 3 14 11 0 381 386 171
689 2 3 14 11 0 381 360 386
690 2 3 14 11 0 375 367 171
691 2 3 14 11 0 361 367 375
692 2 3 14 11 0 379 363 419
693 2 3 14 11 0 440 426 80
694 2 3 14 11 0 367 426 440
695 2 3 14 11 0 374 393 408
696 2 3 14 11 0 391 413 179
697 2 3 14 11 0 391 380 413
698 2 3 14 11 0 420 389 163
699 2 3 14 11 0 381 389 420
700 2 3 14 11 0 395 440 80
701 2 3 14 11 0 395 389 440
702 2 3 14 11 0 422 431 96
703 2 3 14 11 0 422 390 431
704 2 3 14 11 0 415 407 93
705 2 3 14 11 0 393 407 415
706 2 3 14 11 0 400 415 93
707 2 3 14 11 0 400 394 415
708 2 3 14 11 0 420 425 152
709 2 3 14 11 0 420 396 425
710 2 3 14 11 0 402 403 182
711 2 3 14 11 0 402 398 403
712 2 3 14 11 0 412 418 176
713 2 3 14 11 0 412 400 418
714 2 3 14 11 0 419 402 443
715 2 3 14 11 0 441 425 95
716 2 3 14 11 0 403 425 441
717 2 3 14 11 0 431 437 96
718 2 3 14 11 0 431 408 437
719 2 3 14 11 0 414 411 173
720 2 3 14 11 0 410 411 414
721 2 3 14 11 0 430 436 100
722 2 3 14 11 0 199 391 65
723 2 3 14 11 0 233 391 179
724 2 3 14 11 0 233 64 391
725 2 3 14 11 0 391 64 65
726 2 3 14 11 0 80 454 220
727 2 3 14 11 0 426 454 80
728 2 3 14 11 0 146 454 373
729 2 3 14 11 0 373 454 426
730 2 3 14 11 0 69 70 255
731 2 3 14 11 0 70 247 255
732 2 3 14 11 0 131 430 368
733 2 3 14 11 0 430 185 368
734 2 3 14 11 0 185 430 100
735 2 3 14 11 0 130 446 305
736 2 3 14 11 0 252 57 58
737 2 3 14 11 0 119 57 252
738 2 3 14 11 0 58 248 252
739 2 3 14 11 0 126 252 248
740 2 3 14 11 0 89 341 346
741 2 3 14 11 0 346 141 162
742 2 3 14 11 0 71 72 384
743 2 3 14 11 0 71 429 247
744 2 3 14 11 0 71 384 429
745 2 3 14 11 0 97 455 264
746 2 3 14 11 0 455 184 264
747 2 3 14 11 0 184 455 200
748 2 3 14 11 0 235 192 238
749 2 3 14 11 0 238 421 235
750 2 3 14 11 0 238 239 421
751 2 3 14 11 0 411 195 34
752 2 3 14 11 0 411 226 173
753 2 3 14 11 0 226 411 34
754 2 3 14 11 0 442 125 122
755 2 3 14 11 0 125 442 117
756 2 3 14 11 0 245 427 442
757 2 3 14 11 0 427 117 442
758 2 3 14 11 0 412 48 49
759 2 3 14 11 0 48 412 176
760 2 3 14 11 0 115 401 177
761 2 3 14 11 0 401 115 164
762 2 3 14 11 0 435 177 401
763 2 3 14 11 0 154 452 322
764 2 3 14 11 0 207 452 102
765 2 3 14 11 0 399 452 207
766 2 3 14 11 0 322 452 399
767 2 3 14 11 0 197 424 217
768 2 3 14 11 0 404 187 32
769 2 3 14 11 0 187 404 303
770 2 3 14 11 0 404 195 303
771 2 3 14 11 0 423 139 345
772 2 3 14 11 0 191 423 345
773 2 3 14 11 0 423 191 167
774 2 3 14 11 0 432 118 84
775 2 3 14 11 0 118 432 212
776 2 3 14 11 0 239 45 421
777 2 3 14 11 0 132 453 262
778 2 3 14 11 0 453 177 262
779 2 3 14 11 0 177 453 98
780 2 3 14 11 0 240 107 213
781 2 3 14 11 0 223 211 240
782 2 3 14 11 0 213 237 240
783 2 3 14 11 0 237 223 240
784 2 3 14 11 0 53 54 190
785 2 3 14 11 0 54 107 190
786 2 3 14 11 0 219 236 122
787 2 3 14 11 0 442 122 236
788 2 3 14 11 0 219 232 236
789 2 3 14 11 0 31 444 30
790 2 3 14 11 0 31 187 444
791 2 3 14 11 0 46 421 45
792 2 3 14 11 0 13 456 12
793 2 3 14 11 0 456 271 12
794 2 3 14 11 0 457 255 247
795 2 3 14 11 0 255 457 259
796 2 3 14 11 0 433 458 155
797 2 3 14 11 0 459 51 52
798 2 3 14 11 0 460 15 16
799 2 3 14 11 0 197 461 438
800 2 3 14 11 0 462 169 265
801 2 3 14 11 0 254 462 265
802 2 3 14 11 0 246 464 225
803 2 3 14 11 0 446 465 305
804 2 3 14 11 0 465 191 305
805 2 3 14 11 0 466 409 397
806 2 3 14 11 0 150 466 397
807 2 3 14 11 0 26 467 438
808 2 3 14 11 0 467 197 438
809 2 3 14 11 0 468 85 128
810 2 3 14 11 0 468 237 119
811 2 3 14 11 0 237 468 128
812 2 3 14 11 0 85 468 119
813 2 3 14 11 0 458 416 155
814 2 3 14 11 0 203 416 458
815 2 3 14 11 0 428 147 460
816 2 3 14 11 0 456 149 271
817 2 3 14 11 0 458 429 203
818 2 3 14 11 0 175 460 16
819 2 3 14 11 0 175 428 460
820 2 3 14 11 0 178 459 52
821 2 3 14 11 0 27 467 26
822 2 3 14 11 0 405 467 27
823 2 3 14 11 0 197 467 424
824 2 3 14 11 0 405 424 467
825 2 3 14 11 0 464 251 244
826 2 3 14 11 0 251 464 246
827 2 3 14 11 0 244 463 464
828 2 3 14 11 0 449 10 11
829 2 3 14 11 0 10 449 378
830 2 3 14 11 0 242 449 11
831 2 3 14 11 0 197 217 461
832 2 3 14 11 0 217 225 461
833 2 3 14 11 0 464 461 225
834 2 3 14 11 0 341 259 433
835 2 3 14 11 0 457 433 259
836 2 3 14 11 0 73 74 114
837 2 3 14 11 0 230 73 114
838 2 3 14 11 0 110 427 222
839 2 3 14 11 0 427 110 114
840 2 3 14 11 0 427 245 222
841 2 3 14 11 0 331 397 285
842 2 3 14 11 0 409 285 397
843 2 3 14 11 0 141 433 155
844 2 3 14 11 0 414 379 443
845 2 3 14 11 0 379 419 443
846 2 3 14 11 0 414 443 410
847 2 3 14 11 0 110 222 416
848 2 3 14 11 0 290 155 416
849 2 3 14 11 0 416 222 224
850 2 3 14 11 0 416 224 290
851 2 3 14 11 0 462 67 68
852 2 3 14 11 0 67 462 254
853 2 3 14 11 0 169 462 406
854 2 3 14 11 0 406 462 68
855 2 3 14 11 0 198 421 46
856 2 3 14 11 0 436 131 258
857 2 3 14 11 0 430 131 436
858 2 3 14 11 0 164 436 258
859 2 3 14 11 0 243 111 192
860 2 3 14 11 0 162 204 465
861 2 3 14 11 0 465 446 162
862 2 3 14 11 0 445 191 465
863 2 3 14 11 0 204 445 465
864 2 3 14 11 0 327 81 283
865 2 3 14 11 0 447 81 327
866 2 3 14 11 0 143 327 283
867 2 3 14 11 0 47 198 46
868 2 3 14 11 0 47 176 198
869 2 3 14 11 0 470 117 75
870 2 3 14 11 0 117 470 125
871 2 3 14 11 0 346 471 141
872 2 3 14 11 0 433 471 341
873 2 3 14 11 0 471 433 141
874 2 3 14 11 0 471 346 341
875 2 3 14 11 0 472 444 95
876 2 3 14 11 0 104 473 201
877 2 3 14 11 0 474 28 29
878 2 3 14 11 0 412 475 400
879 2 3 14 11 0 475 412 49
880 2 3 14 11 0 201 472 95
881 2 3 14 11 0 76 470 75
882 2 3 14 11 0 50 475 49
883 2 3 14 11 0 394 400 475
884 2 3 14 11 0 474 405 28
885 2 3 14 11 0 463 461 464
886 2 3 14 11 0 30 472 29
887 2 3 14 11 0 472 30 444
888 2 3 14 11 0 472 474 29
889 2 3 14 11 0 469 14 15
890 2 3 14 11 0 15 460 469
891 2 3 14 11 0 358 469 147
892 2 3 14 11 0 460 147 469
893 2 3 14 11 0 14 469 13
894 2 3 14 11 0 456 13 469
895 2 3 14 11 0 358 149 469
896 2 3 14 11 0 469 149 456
897 2 3 14 11 0 9 378 448
898 2 3 14 11 0 108 448 378
899 2 3 14 11 0 141 447 162
900 2 3 14 11 0 447 204 162
901 2 3 14 11 0 473 424 405
902 2 3 14 11 0 424 473 104
903 2 3 14 11 0 405 474 473
904 2 3 14 11 0 463 241 438
905 2 3 14 11 0 463 438 461
906 2 3 14 11 0 457 247 429
907 2 3 14 11 0 457 429 458
908 2 3 14 11 0 458 433 457
909 2 3 14 11 0 415 394 393
910 2 3 14 11 0 408 393 394
911 2 3 14 11 0 394 437 408
912 2 3 14 11 0 66 254 199
913 2 3 14 11 0 254 66 67
914 2 3 14 11 0 476 205 181
915 2 3 14 11 0 106 478 181
916 2 3 14 11 0 5 479 4
917 2 3 14 11 0 479 76 4
918 2 3 14 11 0 479 5 125
919 2 3 14 11 0 479 470 76
920 2 3 14 11 0 125 470 479
921 2 3 14 11 0 216 478 106
922 2 3 14 11 0 478 216 212
923 2 3 14 11 0 432 478 212
924 2 3 14 11 0 437 477 96
925 2 3 14 11 0 394 477 437
926 2 3 14 11 0 473 472 201
927 2 3 14 11 0 474 472 473
928 2 3 14 11 0 475 477 394
929 2 3 14 11 0 463 244 451
930 2 3 14 11 0 241 451 123
931 2 3 14 11 0 241 463 451
932 2 3 14 11 0 253 123 451
933 2 3 14 11 0 81 447 290
934 2 3 14 11 0 290 141 155
935 2 3 14 11 0 447 141 290
936 2 3 14 11 0 108 466 150
937 2 3 14 11 0 466 108 378
938 2 3 14 11 0 449 466 378
939 2 3 14 11 0 466 449 409
940 2 3 14 11 0 480 50 51
941 2 3 14 11 0 480 477 475
942 2 3 14 11 0 50 480 475
943 2 3 14 11 0 459 480 51
944 2 3 14 11 0 459 477 480
945 2 3 14 11 0 434 192 188
946 2 3 14 11 0 243 192 434
947 2 3 14 11 0 476 434 205
948 2 3 14 11 0 434 476 243
949 2 3 14 11 0 478 476 181
950 2 3 14 11 0 476 432 243
951 2 3 14 11 0 432 476 478
952 2 3 14 11 0 481 84 111
953 2 3 14 11 0 481 243 432
954 2 3 14 11 0 243 481 111
955 2 3 14 11 0 84 481 432
956 2 3 14 11 0 96 459 194
957 2 3 14 11 0 459 96 477
958 2 3 14 11 0 459 178 194
959 2 3 14 11 0 482 194 102
960 2 3 14 11 0 482 452 422
961 2 3 14 11 0 452 482 102
962 2 3 14 11 0 194 482 422
$EndElements
